<svg width="94" height="26" viewBox="0 0 94 26" fill="none" xmlns="http://www.w3.org/2000/svg">
<path d="M21.5401 1.38208L17.1798 14.7971H13.8667L10.9345 5.71321L7.90701 14.7971H4.61298L0.233643 1.38208H3.43246L6.44089 10.8109L9.58259 1.38208H12.4387L15.4852 10.8876L18.5888 1.38208H21.5401Z" fill="#FFD22E"/>
<path d="M32.3261 9.68034C32.3261 9.71867 32.3071 9.98697 32.2689 10.4852H24.5195C24.659 11.124 24.9891 11.6287 25.5095 11.9992C26.0299 12.3697 26.6774 12.555 27.4517 12.555C27.9849 12.555 28.4545 12.4783 28.8607 12.325C29.2795 12.1589 29.6667 11.9034 30.0222 11.5584L31.6026 13.2832C30.6378 14.3948 29.2288 14.9505 27.3755 14.9505C26.2203 14.9505 25.1984 14.7269 24.31 14.2798C23.4213 13.8198 22.7359 13.1874 22.2536 12.3825C21.7712 11.5776 21.53 10.6641 21.53 9.64201C21.53 8.63269 21.7649 7.72558 22.2345 6.92067C22.7168 6.10299 23.3706 5.47058 24.1958 5.0234C25.0335 4.56347 25.9664 4.3335 26.9946 4.3335C27.9974 4.3335 28.9051 4.55068 29.7175 4.98507C30.53 5.41948 31.1645 6.04551 31.6216 6.86319C32.0913 7.66808 32.3261 8.60713 32.3261 9.68034ZM27.0137 6.59488C26.341 6.59488 25.776 6.78653 25.3191 7.1698C24.8622 7.55309 24.5829 8.07693 24.4813 8.74129H29.5271C29.4255 8.0897 29.1463 7.57226 28.6894 7.18897C28.2323 6.79291 27.6738 6.59488 27.0137 6.59488Z" fill="#FFD22E"/>
<path d="M40.3592 4.3336C41.3114 4.3336 42.1745 4.55717 42.9487 5.00435C43.7358 5.43874 44.3515 6.05839 44.7958 6.86329C45.24 7.65541 45.4622 8.58169 45.4622 9.64211C45.4622 10.7025 45.24 11.6352 44.7958 12.4401C44.3515 13.2322 43.7358 13.8519 42.9487 14.299C42.1745 14.7334 41.3114 14.9506 40.3592 14.9506C38.9502 14.9506 37.8776 14.5035 37.1414 13.6091V14.7973H34.3043V0.577393H37.2747V5.57928C38.0236 4.74882 39.0518 4.3336 40.3592 4.3336ZM39.8451 12.4976C40.6068 12.4976 41.2288 12.2421 41.7111 11.731C42.2063 11.2072 42.4537 10.5109 42.4537 9.64211C42.4537 8.77334 42.2063 8.08342 41.7111 7.57237C41.2288 7.04853 40.6068 6.78664 39.8451 6.78664C39.0836 6.78664 38.4552 7.04853 37.9601 7.57237C37.4779 8.08342 37.2366 8.77334 37.2366 9.64211C37.2366 10.5109 37.4779 11.2072 37.9601 11.731C38.4552 12.2421 39.0836 12.4976 39.8451 12.4976Z" fill="#FFD22E"/>
<path d="M59.8832 1.38208V14.7971H56.7985V9.29694H50.7436V14.7971H47.6591V1.38208H50.7436V6.67144H56.7985V1.38208H59.8832Z" fill="#FFD22E"/>
<path d="M72.859 9.68034C72.859 9.71867 72.84 9.98697 72.802 10.4852H65.0523C65.1921 11.124 65.522 11.6287 66.0426 11.9992C66.563 12.3697 67.2103 12.555 67.9846 12.555C68.5177 12.555 68.9874 12.4783 69.3936 12.325C69.8126 12.1589 70.1997 11.9034 70.5552 11.5584L72.1354 13.2832C71.1707 14.3948 69.7619 14.9505 67.9085 14.9505C66.7534 14.9505 65.7315 14.7269 64.8431 14.2798C63.9544 13.8198 63.2689 13.1874 62.7865 12.3825C62.3042 11.5776 62.0631 10.6641 62.0631 9.64201C62.0631 8.63269 62.298 7.72558 62.7676 6.92067C63.2499 6.10299 63.9037 5.47058 64.7287 5.0234C65.5664 4.56347 66.4995 4.3335 67.5277 4.3335C68.5305 4.3335 69.438 4.55068 70.2504 4.98507C71.0628 5.41948 71.6976 6.04551 72.1545 6.86319C72.6242 7.66808 72.859 8.60713 72.859 9.68034ZM67.5467 6.59488C66.8741 6.59488 66.3091 6.78653 65.8522 7.1698C65.3951 7.55309 65.1158 8.07693 65.0144 8.74129H70.06C69.9586 8.0897 69.6794 7.57226 69.2223 7.18897C68.7654 6.79291 68.2068 6.59488 67.5467 6.59488Z" fill="#FFD22E"/>
<path d="M77.6764 5.84748C78.0319 5.3492 78.5079 4.9723 79.1045 4.71679C79.7139 4.46125 80.4119 4.3335 81.199 4.3335V7.09316C80.869 7.0676 80.6468 7.05483 80.5326 7.05483C79.6821 7.05483 79.0157 7.29758 78.5334 7.78306C78.051 8.25578 77.8098 8.97126 77.8098 9.92946V14.7972H74.8395V4.48681H77.6764V5.84748Z" fill="#FFD22E"/>
<path d="M87.7439 14.9505C86.6648 14.9505 85.6938 14.7269 84.8307 14.2798C83.9802 13.8198 83.3138 13.1874 82.8314 12.3825C82.3491 11.5776 82.1078 10.6641 82.1078 9.64201C82.1078 8.61992 82.3491 7.70641 82.8314 6.90152C83.3138 6.09661 83.9802 5.47058 84.8307 5.0234C85.6938 4.56347 86.6648 4.3335 87.7439 4.3335C88.8228 4.3335 89.7875 4.56347 90.638 5.0234C91.4886 5.47058 92.155 6.09661 92.6374 6.90152C93.1197 7.70641 93.3608 8.61992 93.3608 9.64201C93.3608 10.6641 93.1197 11.5776 92.6374 12.3825C92.155 13.1874 91.4886 13.8198 90.638 14.2798C89.7875 14.7269 88.8228 14.9505 87.7439 14.9505ZM87.7439 12.4975C88.5054 12.4975 89.1276 12.242 89.6099 11.7309C90.1049 11.2071 90.3525 10.5108 90.3525 9.64201C90.3525 8.77323 90.1049 8.08331 89.6099 7.57226C89.1276 7.04843 88.5054 6.78653 87.7439 6.78653C86.9822 6.78653 86.3539 7.04843 85.8589 7.57226C85.3639 8.08331 85.1163 8.77323 85.1163 9.64201C85.1163 10.5108 85.3639 11.2071 85.8589 11.7309C86.3539 12.242 86.9822 12.4975 87.7439 12.4975Z" fill="#FFD22E"/>
<path d="M60.3972 25.5633C59.8241 25.5633 59.2692 25.4757 58.7324 25.3004C58.2031 25.1181 57.7858 24.8844 57.4812 24.5996L57.8838 23.7454C58.1739 24.0083 58.5439 24.2236 58.9935 24.3916C59.4506 24.5523 59.9184 24.6326 60.3972 24.6326C61.0282 24.6326 61.4998 24.5266 61.8116 24.3149C62.1235 24.0959 62.2796 23.8075 62.2796 23.4498C62.2796 23.1871 62.1925 22.9752 62.0184 22.8147C61.8515 22.6468 61.6412 22.5191 61.3873 22.4314C61.1406 22.3438 60.789 22.2452 60.3319 22.1358C59.7589 21.9969 59.2947 21.8583 58.9392 21.7195C58.591 21.5809 58.29 21.3692 58.0361 21.0844C57.7894 20.7924 57.6663 20.4019 57.6663 19.9125C57.6663 19.5037 57.7713 19.135 57.9818 18.8066C58.1994 18.478 58.5258 18.2152 58.961 18.0181C59.3961 17.821 59.9365 17.7224 60.5821 17.7224C61.0318 17.7224 61.4744 17.7808 61.9096 17.8976C62.3448 18.0145 62.7184 18.1824 63.0302 18.4014L62.6711 19.2775C62.352 19.0731 62.0112 18.9197 61.6484 18.8175C61.2857 18.708 60.9304 18.6533 60.5821 18.6533C59.9657 18.6533 59.5013 18.7664 59.1895 18.9927C58.8849 19.219 58.7324 19.511 58.7324 19.8688C58.7324 20.1317 58.8195 20.347 58.9935 20.515C59.1678 20.6755 59.3816 20.8034 59.6355 20.8983C59.8967 20.9859 60.2486 21.0808 60.691 21.183C61.264 21.3216 61.7245 21.4605 62.0728 21.5991C62.421 21.7377 62.7184 21.9496 62.965 22.2343C63.2187 22.5191 63.3457 22.9023 63.3457 23.3842C63.3457 23.7857 63.237 24.1544 63.0194 24.4901C62.8017 24.8186 62.4717 25.0815 62.0293 25.2786C61.5867 25.4684 61.0427 25.5633 60.3972 25.5633Z" fill="black"/>
<path d="M67.2958 25.5418C66.7081 25.5418 66.1824 25.4141 65.718 25.1585C65.2611 24.9029 64.902 24.5526 64.6409 24.1072C64.3797 23.6545 64.2491 23.1435 64.2491 22.574C64.2491 22.0045 64.3797 21.4972 64.6409 21.0518C64.902 20.5993 65.2611 20.2488 65.718 20.0005C66.1824 19.7451 66.7081 19.6172 67.2958 19.6172C67.818 19.6172 68.2822 19.7232 68.6884 19.9349C69.1018 20.1466 69.4209 20.4532 69.6459 20.8547L68.8516 21.3695C68.6703 21.0921 68.4454 20.884 68.177 20.7452C67.9086 20.6066 67.6112 20.5372 67.2849 20.5372C66.9077 20.5372 66.5667 20.6211 66.262 20.7891C65.9647 20.9569 65.7289 21.1979 65.5549 21.5118C65.3881 21.8184 65.3046 22.1725 65.3046 22.574C65.3046 22.9828 65.3881 23.3442 65.5549 23.6581C65.7289 23.9649 65.9647 24.2021 66.262 24.3701C66.5667 24.538 66.9077 24.6218 67.2849 24.6218C67.6112 24.6218 67.9086 24.5526 68.177 24.4138C68.4454 24.2751 68.6703 24.0671 68.8516 23.7897L69.6459 24.2934C69.4209 24.6949 69.1018 25.0051 68.6884 25.2243C68.2822 25.4359 67.818 25.5418 67.2958 25.5418Z" fill="black"/>
<path d="M74.0036 19.6164C74.7362 19.6164 75.3166 19.8319 75.7445 20.2626C76.1797 20.6861 76.3974 21.3102 76.3974 22.1353V25.4752H75.3528V22.2557C75.3528 21.6935 75.2186 21.2701 74.9502 20.9854C74.6819 20.7007 74.2974 20.5582 73.7968 20.5582C73.2311 20.5582 72.785 20.7262 72.4587 21.0619C72.1322 21.3906 71.969 21.8651 71.969 22.4856V25.4752H70.9244V17.3496H71.969V20.4926C72.1867 20.2152 72.4696 19.9997 72.8176 19.8465C73.1731 19.6931 73.5685 19.6164 74.0036 19.6164Z" fill="black"/>
<path d="M80.8323 25.5418C80.2593 25.5418 79.7443 25.4141 79.2874 25.1585C78.8303 24.9029 78.4713 24.5526 78.2102 24.1072C77.9563 23.6545 77.8293 23.1435 77.8293 22.574C77.8293 22.0045 77.9563 21.4972 78.2102 21.0518C78.4713 20.5993 78.8303 20.2488 79.2874 20.0005C79.7443 19.7451 80.2593 19.6172 80.8323 19.6172C81.4053 19.6172 81.9167 19.7451 82.3664 20.0005C82.8235 20.2488 83.1788 20.5993 83.4327 21.0518C83.6938 21.4972 83.8244 22.0045 83.8244 22.574C83.8244 23.1435 83.6938 23.6545 83.4327 24.1072C83.1788 24.5526 82.8235 24.9029 82.3664 25.1585C81.9167 25.4141 81.4053 25.5418 80.8323 25.5418ZM80.8323 24.6218C81.2023 24.6218 81.5322 24.538 81.8224 24.3701C82.1199 24.1948 82.3519 23.9538 82.5187 23.6472C82.6857 23.3333 82.769 22.9755 82.769 22.574C82.769 22.1725 82.6857 21.8184 82.5187 21.5118C82.3519 21.1979 82.1199 20.9569 81.8224 20.7891C81.5322 20.6211 81.2023 20.5372 80.8323 20.5372C80.4623 20.5372 80.1287 20.6211 79.8314 20.7891C79.5413 20.9569 79.3091 21.1979 79.1351 21.5118C78.9681 21.8184 78.8848 22.1725 78.8848 22.574C78.8848 22.9755 78.9681 23.3333 79.1351 23.6472C79.3091 23.9538 79.5413 24.1948 79.8314 24.3701C80.1287 24.538 80.4623 24.6218 80.8323 24.6218Z" fill="black"/>
<path d="M87.7364 25.5418C87.1632 25.5418 86.6484 25.4141 86.1913 25.1585C85.7344 24.9029 85.3753 24.5526 85.1141 24.1072C84.8602 23.6545 84.7333 23.1435 84.7333 22.574C84.7333 22.0045 84.8602 21.4972 85.1141 21.0518C85.3753 20.5993 85.7344 20.2488 86.1913 20.0005C86.6484 19.7451 87.1632 19.6172 87.7364 19.6172C88.3094 19.6172 88.8208 19.7451 89.2705 20.0005C89.7274 20.2488 90.0829 20.5993 90.3368 21.0518C90.598 21.4972 90.7285 22.0045 90.7285 22.574C90.7285 23.1435 90.598 23.6545 90.3368 24.1072C90.0829 24.5526 89.7274 24.9029 89.2705 25.1585C88.8208 25.4141 88.3094 25.5418 87.7364 25.5418ZM87.7364 24.6218C88.1062 24.6218 88.4364 24.538 88.7265 24.3701C89.0238 24.1948 89.256 23.9538 89.4228 23.6472C89.5896 23.3333 89.6731 22.9755 89.6731 22.574C89.6731 22.1725 89.5896 21.8184 89.4228 21.5118C89.256 21.1979 89.0238 20.9569 88.7265 20.7891C88.4364 20.6211 88.1062 20.5372 87.7364 20.5372C87.3664 20.5372 87.0327 20.6211 86.7353 20.7891C86.4452 20.9569 86.213 21.1979 86.039 21.5118C85.8722 21.8184 85.7887 22.1725 85.7887 22.574C85.7887 22.9755 85.8722 23.3333 86.039 23.6472C86.213 23.9538 86.4452 24.1948 86.7353 24.3701C87.0327 24.538 87.3664 24.6218 87.7364 24.6218Z" fill="black"/>
<path d="M92.1755 17.3496H93.2201V25.4752H92.1755V17.3496Z" fill="black"/>
</svg>
